<svg xmlns="http://www.w3.org/2000/svg" viewBox="0 0 141.38 76.82"><defs><style>.cls-1{fill:none;stroke:#000;stroke-miterlimit:10;stroke-width:2px;}</style></defs><g id="Layer_2" data-name="Layer 2"><g id="Layer_1-2" data-name="Layer 1"><path class="cls-1" d="M51.65,75.82H13.71A12.71,12.71,0,0,1,1,63.12V13.71A12.71,12.71,0,0,1,13.71,1H51.65"/><rect class="cls-1" x="17.18" y="12.76" width="10.59" height="10.59" rx="1.68"/><rect class="cls-1" x="17.18" y="33.12" width="10.59" height="10.59" rx="1.68"/><rect class="cls-1" x="17.18" y="53.47" width="10.59" height="10.59" rx="1.68"/><path d="M47.69,35.58c-2.68-1-3.86-1.93-3.86-3.74,0-1.33,1-2.91,3.66-2.91a7.87,7.87,0,0,1,2.16.3L48.44,32.6l1.73-.1,1.65-4.57,0-.13h0a9,9,0,0,0-4.29-.95c-3.78,0-6.28,2.25-6.28,5.27,0,2.74,2,4.38,5.12,5.5,2.62,1,3.66,2.05,3.66,3.86,0,2-1.5,3.31-4.06,3.31a8.86,8.86,0,0,1-4.49-1.26l-.63,2.1a10,10,0,0,0,5,1.24c4.58,0,6.79-2.6,6.79-5.59S51,36.85,47.69,35.58Z"/><path d="M66.91,36.53c-.75,1.47-1.41,2.73-2,4h-.06c-.6-1.35-1.18-2.53-1.92-4l-2.74-5.36H57.38l6.13,11.17v8.24h2.54V42.31l6.5-11.14H69.7Z"/><polygon points="81.2 27.17 78.69 27.17 78.69 46.58 89.49 46.58 89.49 44.48 81.2 44.48 81.2 27.17"/><path d="M106.57,27.17h-3.11l-5.93,7.29c-.49.63-1,1.32-1.53,2.07h-.09V27.17h-2.5V46.58h2.5v-7.4l1.85-2.13,6.39,9.53h3L99.54,35.41Z"/><path d="M117.51,26.85c-5.18,0-9,4-9,10.2,0,5.87,3.6,9.84,8.72,9.84,5,0,9-3.54,9-10.22C126.23,30.91,122.81,26.85,117.51,26.85Zm-.14,18c-4,0-6.19-3.71-6.19-7.86s2.07-8.09,6.21-8.09,6.2,4,6.2,7.89C123.59,41.19,121.34,44.85,117.37,44.85Z"/><path d="M136.43,35.58c-2.68-1-3.86-1.93-3.86-3.74,0-1.33,1-2.91,3.66-2.91a7.66,7.66,0,0,1,3.68.92l.69-2.05a8.91,8.91,0,0,0-4.29-.95c-3.77,0-6.27,2.25-6.27,5.27,0,2.74,2,4.38,5.12,5.5,2.62,1,3.66,2.05,3.66,3.86,0,2-1.5,3.31-4.06,3.31a8.86,8.86,0,0,1-4.49-1.26l-.64,2.1a10.06,10.06,0,0,0,5,1.24c4.57,0,6.79-2.6,6.79-5.59S139.71,36.85,136.43,35.58Z"/><polyline class="cls-1" points="18.53 57.15 23.01 61.18 33.76 50.58"/></g></g></svg>